<svg width="320" height="100" viewBox="0 0 320 100" xmlns="http://www.w3.org/2000/svg" role="img" aria-labelledby="title desc">
  <title id="title">Neo Price Feed</title>
  <desc id="desc">Shield mark with price candles and TEE lock for the Neo price feed.</desc>
  <defs>
    <linearGradient id="bg" x1="0%" x2="100%" y1="0%" y2="100%">
      <stop stop-color="#0f9d58" offset="0%"/>
      <stop stop-color="#0b7d46" offset="100%"/>
    </linearGradient>
  </defs>
  <rect x="0" y="0" width="320" height="100" fill="#0b0e11"/>
  <g transform="translate(16 8)">
    <rect x="0" y="0" width="110" height="84" rx="12" fill="url(#bg)" />
    <rect x="22" y="52" width="10" height="20" fill="#0b0e11" rx="2"/>
    <rect x="42" y="28" width="10" height="44" fill="#0b0e11" rx="2"/>
    <rect x="62" y="40" width="10" height="32" fill="#0b0e11" rx="2"/>
    <rect x="82" y="18" width="10" height="54" fill="#0b0e11" rx="2"/>
    <circle cx="22" cy="52" r="3" fill="#0b0e11"/>
    <circle cx="42" cy="28" r="3" fill="#0b0e11"/>
    <circle cx="62" cy="40" r="3" fill="#0b0e11"/>
    <circle cx="82" cy="18" r="3" fill="#0b0e11"/>
    <path d="M12 18l42-14 42 14v22c0 26-18 44-42 52-24-8-42-26-42-52z" fill="none" stroke="#e3f7ea" stroke-width="2.2" opacity="0.85"/>
    <path d="M41 44h20c4 0 7 3 7 7v12c0 4-3 7-7 7H41c-4 0-7-3-7-7V51c0-4 3-7 7-7z" fill="#e3f7ea" opacity="0.95"/>
    <path d="M51 36c-6 0-10 4-10 10v4h6v-4c0-2 1-4 4-4s4 2 4 4v4h6v-4c0-6-4-10-10-10z" fill="#e3f7ea"/>
  </g>
  <g transform="translate(150 30)" fill="#e3f7ea">
    <text x="0" y="22" font-family="Arial Black, Arial, sans-serif" font-size="26" letter-spacing="1">NEO PRICE FEED</text>
    <text x="2" y="42" font-family="Arial, sans-serif" font-size="14" fill="#9bd2ae">Secure TEE • Dual Signature • On-chain Oracle</text>
  </g>
</svg>
